HIERARCHY
ROOT Hips
{
	OFFSET 0.000000 0.000000 0.000000
	CHANNELS 6 Xposition Yposition Zposition Zrotation Yrotation Xrotation 
	JOINT LowerBack
	{
		OFFSET 0.000000 0.000000 0.000000
		CHANNELS 3 Zrotation Yrotation Xrotation
		JOINT Spine
		{
			OFFSET 0.028270 2.035590 -0.193380
			CHANNELS 3 Zrotation Yrotation Xrotation
			JOINT Spine1
			{
				OFFSET 0.056720 2.048850 -0.042750
				CHANNELS 3 Zrotation Yrotation Xrotation
				JOINT Neck
				{
					OFFSET 0.000000 0.000000 0.000000
					CHANNELS 3 Zrotation Yrotation Xrotation
					JOINT Neck1
					{
						OFFSET -0.054170 1.746240 0.172020
						CHANNELS 3 Zrotation Yrotation Xrotation
						JOINT Head
						{
							OFFSET 0.104070 1.761360 -0.123970
							CHANNELS 3 Zrotation Yrotation Xrotation
							End Site
							{
								OFFSET 0.000000 0.000000 0.000000
							}
						}
					}
				}
				JOINT LeftShoulder
				{
					OFFSET 0.000000 0.000000 0.000000
					CHANNELS 3 Zrotation Yrotation Xrotation
					JOINT LeftArm
					{
						OFFSET 3.362410 1.200890 -0.311210
						CHANNELS 3 Zrotation Yrotation Xrotation
						JOINT LeftForeArm
						{
							OFFSET 4.983000 -0.000000 -0.000000
							CHANNELS 3 Zrotation Yrotation Xrotation
							JOINT LeftHand
							{
								OFFSET 3.483560 -0.000000 -0.000000
								CHANNELS 3 Zrotation Yrotation Xrotation
								JOINT LeftFingerBase
								{
									OFFSET 0.000000 0.000000 0.000000
									CHANNELS 3 Zrotation Yrotation Xrotation
									JOINT LeftHandIndex1
									{
										OFFSET 0.715260 -0.000000 -0.000000
										CHANNELS 3 Zrotation Yrotation Xrotation
										End Site
										{
											OFFSET 0.000000 0.000000 0.000000
										}
									}
								}
								JOINT LThumb
								{
									OFFSET 0.000000 0.000000 0.000000
									CHANNELS 3 Zrotation Yrotation Xrotation
									End Site
									{
										OFFSET 0.000000 0.000000 0.000000
									}
								}
							}
						}
					}
				}
				JOINT RightShoulder
				{
					OFFSET 0.000000 0.000000 0.000000
					CHANNELS 3 Zrotation Yrotation Xrotation
					JOINT RightArm
					{
						OFFSET -3.136600 1.374050 -0.404650
						CHANNELS 3 Zrotation Yrotation Xrotation
						JOINT RightForeArm
						{
							OFFSET -5.241900 -0.000000 -0.000000
							CHANNELS 3 Zrotation Yrotation Xrotation
							JOINT RightHand
							{
								OFFSET -3.444170 -0.000000 -0.000000
								CHANNELS 3 Zrotation Yrotation Xrotation
								JOINT RightFingerBase
								{
									OFFSET 0.000000 0.000000 0.000000
									CHANNELS 3 Zrotation Yrotation Xrotation
									JOINT RightHandIndex1
									{
										OFFSET -0.622530 -0.000000 -0.000000
										CHANNELS 3 Zrotation Yrotation Xrotation
										End Site
										{
											OFFSET 0.000000 0.000000 0.000000
										}
									}
								}
								JOINT RThumb
								{
									OFFSET 0.000000 0.000000 0.000000
									CHANNELS 3 Zrotation Yrotation Xrotation
									End Site
									{
										OFFSET 0.000000 0.000000 0.000000
									}
								}
							}
						}
					}
				}
			}
		}
	}
}
}
MOTION
Frames: 12
Frame Time: 0.008333
18.424549 16.721691 1.233094 139.597219 -87.865634 -87.140108 0.332341 -2.199943 -4.012601 -0.699056 -2.419008 -3.561517 -5.725219 -2.622895 1.854053 10.669434 -11.565386 -12.690034 -2.477609 -0.114820 -1.795488 0.000000 0.000000 0.000000 -4.603971 12.644575 2.779453 -59.478429 34.284359 3.377302 -2.648408 -8.162043 0.006394 3.355292 -0.315751 -0.006594 -0.113820 -0.098337 0.000000 0.000000 0.000000 0.000000 0.000000 0.000000 0.000000 16.526745 -10.893258 3.166902 58.691780 -34.264004 -24.071891 2.233822 0.722735 0.002752 -11.346192 3.230062 -0.331045 0.203082 -0.043812 -0.000000 0.000000 0.000000 0.000000 0.000000 0.000000 0.000000 
18.397766 16.650888 1.234619 136.964424 -87.917101 -83.805768 0.410140 -2.203181 -4.314189 -0.701230 -2.438898 -3.649294 -5.798230 -2.645665 1.840534 10.710535 -11.335989 -12.667753 -2.554767 -0.122068 -1.796123 0.000000 0.000000 0.000000 -4.698488 12.232345 2.824762 -59.718371 33.230450 3.805221 -2.635876 -8.607082 0.005240 3.188188 0.049034 0.004198 -0.108505 -0.095973 0.000000 0.000000 0.000000 0.000000 0.000000 0.000000 0.000000 16.800621 -10.651686 3.233994 59.308190 -33.057917 -24.097748 2.185240 0.906536 0.001734 -11.451733 3.084710 -0.319345 0.199610 -0.045004 -0.000000 0.000000 0.000000 0.000000 0.000000 0.000000 0.000000 
18.370416 16.572735 1.236420 134.173837 -87.969525 -80.355414 0.494739 -2.207367 -4.610851 -0.701065 -2.460106 -3.734643 -5.869570 -2.669530 1.830227 10.740663 -11.111098 -12.638690 -2.632080 -0.129415 -1.794271 0.000000 0.000000 0.000000 -4.787517 11.827045 2.869534 -59.938627 32.122210 4.168007 -2.624700 -9.058470 0.004138 3.030797 0.425180 0.014192 -0.103583 -0.093145 0.000000 0.000000 0.000000 0.000000 0.000000 0.000000 0.000000 17.063534 -10.414699 3.295740 59.897292 -31.804424 -24.056843 2.139150 1.132319 0.000610 -11.553855 2.885327 -0.301645 0.196256 -0.045907 -0.000000 0.000000 0.000000 0.000000 0.000000 0.000000 0.000000 
18.342700 16.486886 1.238502 131.156186 -88.025483 -76.726321 0.587619 -2.211196 -4.899359 -0.697795 -2.481244 -3.816813 -5.938224 -2.692959 1.821123 10.761892 -10.897959 -12.601299 -2.710056 -0.136936 -1.789371 0.000000 0.000000 0.000000 -4.869603 11.430168 2.906802 -60.133089 30.957333 4.457089 -2.618829 -9.416104 0.003520 2.852486 0.499431 0.015090 -0.099096 -0.088495 0.000000 0.000000 0.000000 0.000000 0.000000 0.000000 0.000000 17.319593 -10.191692 3.350513 60.449911 -30.522490 -23.856827 2.099788 1.431917 -0.000601 -11.636270 2.616944 -0.275947 0.193011 -0.046286 -0.000000 0.000000 0.000000 0.000000 0.000000 0.000000 0.000000 
18.314630 16.393273 1.240865 127.800040 -88.086734 -72.819269 0.690970 -2.217041 -5.176852 -0.691875 -2.504980 -3.894178 -6.007268 -2.718727 1.816580 10.780059 -10.692663 -12.556914 -2.787296 -0.144462 -1.781612 0.000000 0.000000 0.000000 -4.950646 11.041627 2.946690 -60.301811 29.736620 4.719533 -2.610985 -9.846724 0.002591 2.718793 0.844133 0.022786 -0.094985 -0.084705 -0.000000 0.000000 0.000000 0.000000 0.000000 0.000000 0.000000 17.569880 -9.977484 3.395371 60.954043 -29.190972 -23.624546 2.065840 1.725159 -0.001708 -11.668448 2.379548 -0.252045 0.189610 -0.046986 -0.000000 0.000000 0.000000 0.000000 0.000000 0.000000 0.000000 
18.286022 16.291836 1.243487 123.972177 -88.153919 -68.506021 0.806339 -2.224004 -5.441505 -0.682439 -2.530439 -3.966696 -6.075993 -2.745882 1.813798 10.796435 -10.493279 -12.502579 -2.864970 -0.152147 -1.770045 0.000000 0.000000 0.000000 -5.032530 10.661197 2.981975 -60.436747 28.461605 4.968562 -2.604938 -10.248943 0.001808 2.599832 1.133772 0.028484 -0.091248 -0.080374 -0.000000 0.000000 0.000000 0.000000 0.000000 0.000000 0.000000 17.817263 -9.773571 3.429659 61.402954 -27.815125 -23.369573 2.038337 1.993151 -0.002618 -11.636282 2.216295 -0.234443 0.185962 -0.048266 -0.000000 0.000000 0.000000 0.000000 0.000000 0.000000 0.000000 
18.256750 16.182789 1.246316 119.526351 -88.225878 -63.648438 0.933686 -2.232251 -5.691435 -0.669926 -2.557948 -4.033931 -6.146459 -2.774803 1.812385 10.816340 -10.297063 -12.437973 -2.943950 -0.160063 -1.754464 0.000000 0.000000 0.000000 -5.117584 10.285055 3.014559 -60.534784 27.132563 5.227389 -2.599350 -10.648637 0.001017 2.512030 1.486806 0.035483 -0.087855 -0.076048 0.000000 0.000000 0.000000 0.000000 0.000000 0.000000 0.000000 18.070033 -9.577082 3.451909 61.791504 -26.399712 -23.090236 2.018366 2.222284 -0.003250 -11.531734 2.165493 -0.227240 0.181999 -0.050329 -0.000000 0.000000 0.000000 0.000000 0.000000 0.000000 0.000000 
18.226513 16.066488 1.249326 114.346239 -88.298964 -58.134195 1.070893 -2.240164 -5.926030 -0.654630 -2.585878 -4.096408 -6.219005 -2.803869 1.809328 10.842823 -10.099697 -12.360620 -3.026317 -0.168435 -1.734113 0.000000 0.000000 0.000000 -5.205947 9.909227 3.039531 -60.593311 25.745776 5.492696 -2.596777 -10.951689 0.000553 2.446638 1.645849 0.037885 -0.084854 -0.070807 0.000000 0.000000 0.000000 0.000000 0.000000 0.000000 0.000000 18.336728 -9.385544 3.462043 62.116764 -24.957871 -22.754661 2.007233 2.414382 -0.003554 -11.356799 2.251677 -0.232831 0.177726 -0.053245 -0.000000 0.000000 0.000000 0.000000 0.000000 0.000000 0.000000 
18.182719 15.930844 1.276267 77.924539 -88.858899 -21.100187 2.218097 -2.205417 -6.587206 -0.377368 -2.655522 -4.255389 -6.296108 -2.877899 1.831210 10.658009 -9.892502 -12.262148 -3.098236 -0.176844 -1.694664 0.000000 0.000000 0.000000 -5.671402 9.682404 3.039037 -60.612556 24.391080 5.857466 -2.561446 -11.206671 0.000392 2.417542 1.643986 0.037290 -0.080851 -0.064766 -0.000000 0.000000 0.000000 0.000000 0.000000 0.000000 0.000000 18.264214 -9.212857 3.428925 62.185306 -23.616524 -22.341749 2.068291 2.533563 -0.003214 -11.087950 2.548347 -0.256922 0.176372 -0.057344 -0.000000 0.000000 0.000000 0.000000 0.000000 0.000000 0.000000 
18.150290 15.802096 1.279383 72.747071 -88.839193 -15.751700 2.301960 -2.194385 -6.791218 -0.375326 -2.664901 -4.309440 -6.375698 -2.888341 1.820207 10.714829 -9.677887 -12.157627 -3.191920 -0.186473 -1.664349 0.000000 0.000000 0.000000 -5.752920 9.295653 3.051287 -60.606770 22.875518 6.155892 -2.562863 -11.290369 0.000442 2.458350 1.502142 0.034599 -0.078743 -0.058506 -0.000000 0.000000 0.000000 0.000000 0.000000 0.000000 0.000000 18.591816 -9.007110 3.415825 62.389681 -22.163647 -21.748551 2.077010 2.689592 -0.002776 -10.812959 2.953635 -0.289908 0.171563 -0.061934 -0.000000 0.000000 0.000000 0.000000 0.000000 0.000000 0.000000 
18.116599 15.668665 1.282416 68.016098 -88.779767 -10.933610 2.366144 -2.191560 -6.982319 -0.378629 -2.681264 -4.361694 -6.460274 -2.905834 1.799537 10.780156 -9.421359 -12.029347 -3.294150 -0.197108 -1.626282 0.000000 0.000000 0.000000 -5.839316 8.861075 3.062282 -60.571516 21.325048 6.443560 -2.565177 -11.274920 0.000655 2.581185 1.268521 0.030609 -0.077007 -0.052020 -0.000000 0.000000 0.000000 0.000000 0.000000 0.000000 0.000000 18.945185 -8.772979 3.393681 62.537906 -20.670215 -21.369335 2.086391 2.658091 -0.001717 -10.481079 3.720631 -0.353189 0.166158 -0.068996 -0.000000 0.000000 0.000000 0.000000 0.000000 0.000000 0.000000 
18.081225 15.531719 1.285412 63.925884 -88.674595 -6.835008 2.407705 -2.197336 -7.161163 -0.388323 -2.704726 -4.411656 -6.550487 -2.930454 1.771790 10.859612 -9.129822 -11.881535 -3.406424 -0.208789 -1.582004 0.000000 0.000000 0.000000 -5.914262 8.384566 3.075078 -60.520743 19.696919 6.700258 -2.565890 -11.115100 0.001003 2.822245 0.960569 0.025421 -0.075646 -0.045264 -0.000000 0.000000 0.000000 0.000000 0.000000 0.000000 0.000000 19.341035 -8.515393 3.363100 62.635417 -19.161037 -20.969833 2.098788 2.552488 -0.000335 -10.162649 4.690678 -0.430768 0.160730 -0.077033 -0.000000 0.000000 0.000000 0.000000 0.000000 0.000000 0.000000 
